# xmcd
# 
# Track frame offsets:
#     150
#     19228
#     39317
#     59825
#     78053
#     101540
#     124044
#     144799
#     161688
#     184775
#     207776
#     232156
#     248759
#     273111
#     289771
#     307129
#     314419
#     321691
#     328865
#     339519
# 
# Disc length: 4687
# 
# Revision: 0
# Processed by: cddbd v1.5.2PL0 Copyright (c) Steve Scherf et al.
# Submitted via: fre:ac v1.0.31
# 
DISCID=28124d14
DTITLE=Varios - Rurouni Kenshin - Best Collection OST
DYEAR=0
DGENRE=Anime
TTITLE0=そばかす
TTITLE1=Tactics
TTITLE2=涙は知っている
TTITLE3=Heart of Sword
TTITLE4=1/2
TTITLE5=The Forth Avenue Cafe
TTITLE6=It's gonna rain！
TTITLE7=1/3の純情な感情
TTITLE8=虹
TTITLE9=永遠の未来
TTITLE10=君に触れるだけで
TTITLE11=ダメ！
TTITLE12=君に触れるだけで (カラオケ)
TTITLE13=ダメ! (カラオケ)
TTITLE14=Nanairo no Kaze
TTITLE15=そばかす (English version)
TTITLE16=涙は知っている\t Spanish version
TTITLE17=そばかす Techno Mix
TTITLE18=Kimi wa Dare o Mamotte Iru
TTITLE19=Flute Solo
EXTD=
EXTT0=
EXTT1=
EXTT2=
EXTT3=
EXTT4=
EXTT5=
EXTT6=
EXTT7=
EXTT8=
EXTT9=
EXTT10=
EXTT11=
EXTT12=
EXTT13=
EXTT14=
EXTT15=
EXTT16=
EXTT17=
EXTT18=
EXTT19=
PLAYORDER=
